<?xml version="1.0" encoding="UTF-8"?>
<svg version="1.1" xmlns="http://www.w3.org/2000/svg" width="658" height="467">
<path d="M0 0 C217.14 0 434.28 0 658 0 C658 154.11 658 308.22 658 467 C440.86 467 223.72 467 0 467 C0 312.89 0 158.78 0 0 Z " fill="#000000" transform="translate(0,0)"/>
<path d="M0 0 C3.23722373 1.61861187 4.77797775 2.52457978 7.21200562 4.93112183 C7.82306656 5.53076248 8.4341275 6.13040314 9.06370544 6.74821472 C9.72250198 7.40477554 10.38129852 8.06133636 11.06005859 8.73779297 C11.76301559 9.43082016 12.4659726 10.12384735 13.19023132 10.83787537 C15.51526993 13.13369631 17.83244552 15.4372427 20.1484375 17.7421875 C21.76502213 19.34726223 23.38160949 20.95233421 24.99819946 22.55740356 C28.38974305 25.92793107 31.77659799 29.30309972 35.16113281 32.68066406 C39.48050664 36.98910302 43.81808569 41.27869999 48.16040611 45.56399345 C51.5096054 48.87576825 54.84514171 52.20105575 58.17720413 55.53006363 C59.76929527 57.1161337 61.36634904 58.69723952 62.96857834 60.27306747 C82.49837152 79.50399265 82.49837152 79.50399265 83.7265625 92.265625 C83.72397402 93.92742619 83.69047763 95.58948725 83.625 97.25 C83.63144531 98.08273438 83.63789063 98.91546875 83.64453125 99.7734375 C83.34170594 117.33730566 65.83965087 130.46246181 54.31640625 141.94921875 C52.80919212 143.45778252 51.30227478 144.96664288 49.79563904 146.4757843 C46.65971799 149.61463439 43.52025667 152.74988679 40.37817383 155.88256836 C36.34391129 159.90534866 32.31881395 163.93716219 28.29625034 167.97163677 C25.1970341 171.07805633 22.09310003 174.17972635 18.98768425 177.27994728 C17.50019332 178.76610204 16.01419216 180.25374943 14.52969551 181.74289513 C12.46672135 183.81091886 10.39749803 185.87247365 8.32641602 187.93237305 C7.40463562 188.86022614 7.40463562 188.86022614 6.4642334 189.80682373 C2.228545 194 2.228545 194 0 194 C0 129.98 0 65.96 0 0 Z " fill="#FBFBFB" transform="translate(338,102)"/>
<path d="M0 0 C4.65921475 32.27536926 4.65921475 32.27536926 -3.62996483 44.31972504 C-9.9475163 52.4355603 -17.70095361 59.26381831 -25.43762207 65.98858643 C-28.81367335 68.96207919 -32.08219217 72.04944392 -35.36132812 75.12890625 C-41.09083314 80.48916252 -46.90214059 85.74346535 -52.79173279 90.92718506 C-55.30213229 93.28359988 -55.86230379 94.27709488 -56.5 97.625 C-55.24409616 106.10235092 -45.26964913 112.45117449 -39.18613052 117.79376602 C2.18133418 154.39493552 2.18133418 154.39493552 3.40974426 172.10133362 C3.47124312 179.90025325 2.21612908 187.53613294 0 195 C-2.85911354 193.69962906 -4.93697619 192.31830037 -7.16731262 190.11357117 C-7.76851425 189.52378983 -8.36971588 188.93400848 -8.98913574 188.32635498 C-9.6370105 187.68071594 -10.28488525 187.0350769 -10.95239258 186.36987305 C-11.98978828 185.34737206 -11.98978828 185.34737206 -13.04814148 184.30421448 C-15.33590901 182.04566638 -17.61581132 179.77939297 -19.89453125 177.51171875 C-21.48630066 175.93146055 -23.07807213 174.35120444 -24.66984558 172.77095032 C-28.01011535 169.45169813 -31.34569463 166.12780368 -34.67895508 162.80151367 C-38.92872589 158.56266798 -43.19668986 154.34266426 -47.46942616 150.1269865 C-50.76807476 146.86580443 -54.05301847 143.59106977 -57.3345089 140.31263161 C-58.90065017 138.75250367 -60.47174462 137.1973303 -62.0480442 135.64746666 C-83.87417 114.16124313 -83.87417 114.16124313 -84.25 97.75 C-84.0566825 84.96956529 -77.3177951 75.84302459 -68.56347656 67.20703125 C-67.83283493 66.47434525 -67.1021933 65.74165924 -66.34941101 64.98677063 C-63.95366311 62.58803558 -61.54740359 60.20016296 -59.140625 57.8125 C-57.46806485 56.14299966 -55.79609674 54.47290599 -54.12469482 52.80224609 C-50.63243577 49.31457624 -47.13533959 45.83185978 -43.63427734 42.35302734 C-39.13572628 37.88288925 -34.64602057 33.40399672 -30.15942764 28.92185974 C-26.71313282 25.47970861 -23.26401585 22.04039816 -19.81383514 18.60214233 C-18.15627801 16.95029851 -16.49919905 15.29797473 -14.84259796 13.64517212 C-12.53733062 11.34673628 -10.22870897 9.05172867 -7.91894531 6.7578125 C-6.88416298 5.72470695 -6.88416298 5.72470695 -5.82847595 4.67073059 C-4.89066032 3.74148018 -4.89066032 3.74148018 -3.93389893 2.79345703 C-3.38823902 2.25077179 -2.84257912 1.70808655 -2.28038406 1.1489563 C-1 0 -1 0 0 0 Z " fill="#FBFBFB" transform="translate(329,101)"/>
<path d="M0 0 C4.08800712 2.04400356 6.83827799 4.48201383 10.04296875 7.63671875 C10.61203445 8.19438431 11.18110016 8.75204987 11.76741028 9.32661438 C12.96614323 10.50649542 14.16202452 11.68927979 15.35522461 12.87475586 C17.17798612 14.67808754 19.02094792 16.45895837 20.86523438 18.24023438 C22.02996087 19.39190073 23.19341583 20.54485476 24.35546875 21.69921875 C24.90647751 22.22553391 25.45748627 22.75184906 26.02519226 23.29411316 C29.69718276 27.00952769 30.98506884 29.76758691 31 35 C30.19824219 37.01171875 30.19824219 37.01171875 28.796875 38.6875 C28.23935547 39.35523438 27.68183594 40.02296875 27.10742188 40.7109375 C23.11154262 45.05122525 19.01849595 49.27624129 14.83056641 53.43017578 C13.23226796 55.01761152 11.64511673 56.61564809 10.05859375 58.21484375 C9.04491268 59.2272056 8.03061267 60.23894815 7.015625 61.25 C6.10071289 62.16265625 5.18580078 63.0753125 4.24316406 64.015625 C2 66 2 66 0 66 C0 44.22 0 22.44 0 0 Z " fill="#0B0B0B" transform="translate(364,166)"/>
<path d="M0 0 C3.50625 -0.061875 7.0125 -0.12375 10.625 -0.1875 C11.71893066 -0.21481201 12.81286133 -0.24212402 13.93994141 -0.27026367 C20.31006579 -0.3246043 24.53436836 0.40077627 29.75 4.3125 C34.11079342 10.19957112 33.70723641 18.05700845 33 25 C32.02626541 28.03664654 31.06624415 29.47459048 29 32 C26.75 32.9375 26.75 32.9375 25 33 C25 33.66 25 34.32 25 35 C21.99984088 36.00005304 20.02576244 36.11575585 16.89453125 36.09765625 C16.00870361 36.09515869 15.12287598 36.09266113 14.21020508 36.09008789 C13.0889624 36.08098389 11.96771973 36.07187988 10.8125 36.0625 C7.244375 36.041875 3.67625 36.02125 0 36 C0 24.12 0 12.24 0 0 Z " fill="#ECECEC" transform="translate(340,335)"/>
<path d="M0 0 C-0.6875 1.9375 -0.6875 1.9375 -2 4 C-4.87939419 4.93580311 -6.25509788 5.37245106 -9 4 C-13.53113746 3.85143812 -17.57882704 3.89470676 -22 5 C-24.222209 11.79734517 -24.29484608 17.95144273 -23 25 C-22.34 25.99 -21.68 26.98 -21 28 C-18.24316429 28.44199494 -18.24316429 28.44199494 -15.125 28.3125 C-14.07570313 28.30863281 -13.02640625 28.30476563 -11.9453125 28.30078125 C-9.06425813 28.00656217 -7.50534119 27.34019343 -5 26 C-2.25 26.375 -2.25 26.375 0 27 C0.495 28.98 0.495 28.98 1 31 C0.34 31 -0.32 31 -1 31 C-1.33 31.99 -1.66 32.98 -2 34 C-8.38040512 36.12680171 -18.00910248 36.2748359 -24.3125 33.625 C-27 32 -27 32 -29 30 C-29 29.01 -29 28.02 -29 27 C-29.66 27 -30.32 27 -31 27 C-32.73948569 23.52102861 -32.35395221 19.64705567 -32.4375 15.8125 C-32.48326172 14.97396484 -32.52902344 14.13542969 -32.57617188 13.27148438 C-32.65974269 8.61695312 -32.26304206 5.6937634 -29.28515625 2.01171875 C-21.80815918 -5.49717959 -8.85671069 -5.06097753 0 0 Z " fill="#DFDFDF" transform="translate(326,337)"/>
<path d="M0 0 C14.06020328 -0.43041439 14.06020328 -0.43041439 19 3 C21.03480984 5.03480984 20.18507583 9.08720017 20.1875 11.875 C20.19974609 12.60847656 20.21199219 13.34195312 20.22460938 14.09765625 C20.23509566 17.93563514 20.17768617 19.73347074 18 23 C12.13082658 24.69897125 6.10321863 24 0 24 C0 16.08 0 8.16 0 0 Z " fill="#040404" transform="translate(346,341)"/>
<path d="M0 0 C0 12.54 0 25.08 0 38 C-0.33 38 -0.66 38 -1 38 C-1.33 27.11 -1.66 16.22 -2 5 C-4.19567627 7.2061499 -6.39135254 9.4122998 -8.65356445 11.68530273 C-15.89734447 18.96217716 -23.14661308 26.23356463 -30.39861774 33.50224209 C-34.7966446 37.9107197 -39.19278614 42.32104408 -43.5847168 46.7355957 C-47.8208119 50.99337298 -52.06173062 55.2462895 -56.30608177 59.49583626 C-57.92699221 61.12045077 -59.54613724 62.7468286 -61.16350746 64.37496758 C-63.4238167 66.64973007 -65.69024162 68.91822212 -67.95825195 71.18530273 C-68.96597908 72.20381569 -68.96597908 72.20381569 -69.99406433 73.24290466 C-70.61242157 73.85851257 -71.23077881 74.47412048 -71.86787415 75.10838318 C-72.40343587 75.64578849 -72.93899759 76.1831938 -73.49078846 76.73688412 C-75 78 -75 78 -78 79 C-76.66703081 76.04166817 -75.2101963 73.9606884 -72.91893005 71.67169189 C-72.28656433 71.03513168 -71.65419861 70.39857147 -71.00267029 69.74272156 C-70.3101265 69.05579727 -69.6175827 68.36887299 -68.90405273 67.66113281 C-68.17384918 66.92903091 -67.44364563 66.19692902 -66.6913147 65.44264221 C-64.27693322 63.02455641 -61.85542773 60.61374493 -59.43359375 58.203125 C-57.75696491 56.52768798 -56.08070524 54.85188145 -54.40480042 53.17572021 C-50.89315107 49.66563501 -47.37816618 46.1589364 -43.8605957 42.65478516 C-39.34017616 38.15138803 -34.8264003 33.64140314 -30.31486416 29.12910843 C-26.85548826 25.67000369 -23.39351812 22.21350555 -19.93065071 18.75789642 C-18.26458467 17.09502335 -16.59913312 15.43153436 -14.93429375 13.76743317 C-12.61422307 11.44951756 -10.29089774 9.1349174 -7.96655273 6.82128906 C-7.27198471 6.12626785 -6.57741669 5.43124664 -5.86180115 4.71516418 C-5.23225525 4.08988327 -4.60270935 3.46460236 -3.9540863 2.82037354 C-3.40452994 2.27249302 -2.85497358 1.7246125 -2.288764 1.16012955 C-1 0 -1 0 0 0 Z " fill="#E2E2E2" transform="translate(329,101)"/>
<path d="M0 0 C12.625 -0.25 12.625 -0.25 16 2 C11.38 2 6.76 2 2 2 C2 8.6 2 15.2 2 22 C5.650625 21.7834375 5.650625 21.7834375 9.375 21.5625 C10.13989746 21.51939697 10.90479492 21.47629395 11.69287109 21.43188477 C15.47181316 21.23790296 15.47181316 21.23790296 19 20 C18.67 20.99 18.34 21.98 18 23 C11.78300769 24.38155385 6.74953003 24 0 24 C0 16.08 0 8.16 0 0 Z " fill="#545454" transform="translate(346,341)"/>
</svg>
